# xmcd
#
# Track frame offsets:
# 150
# 17750
# 34370
# 52078
# 67921
# 83033
# 100768
# 113620
# 131358
# 151307
# 164315
# 181870
# 198072
# 211527
# 227606
# 243196
# 255811
# 272006
# 284776
# 298862
#
# Disc length: 4230 seconds
#
#
# Revision: 0
# Processed by: cddbd v1.5.1PL2 Copyright (c) Steve Scherf et al.
# Submitted via: FreeRIP 2.945 
#
DISCID=07108414
DTITLE=bruno e marrone - selecao de ouro v-3
DYEAR=1900
DGENRE=Vocal
TTITLE0=choram as rosas
TTITLE1=porque choras?
TTITLE2=inevitavel
TTITLE3=ligacao urbana
TTITLE4=cuida do nosso amor
TTITLE5=vai dar namoro
TTITLE6=dormi na praca
TTITLE7=por um gole a mais
TTITLE8=se nao tivesse ido
TTITLE9=pra la que eu vou
TTITLE10=por te amar demais
TTITLE11=te amar foi ilusao
TTITLE12=transito parado
TTITLE13=doce desejo
TTITLE14=que pescar que nada
TTITLE15=vivendo do passado
TTITLE16=vai sofrer pra la
TTITLE17=feriado nacional
TTITLE18=apaziguar
TTITLE19=queremos mais
EXTD=
EXTT0=
EXTT1=
EXTT2=
EXTT3=
EXTT4=
EXTT5=
EXTT6=
EXTT7=
EXTT8=
EXTT9=
EXTT10=
EXTT11=
EXTT12=
EXTT13=
EXTT14=
EXTT15=
EXTT16=
EXTT17=
EXTT18=
EXTT19=
PLAYORDER=
